<svg xmlns="http://www.w3.org/2000/svg" viewBox="0 0 128 128" role="img" aria-labelledby="title desc">
  <title id="title">Tidal Crab avatar</title>
  <desc id="desc">A simple teal crab mark with round eyes and raised claws.</desc>
  <circle cx="64" cy="64" r="58" fill="#e8fffb"/>
  <circle cx="64" cy="64" r="55" fill="none" stroke="#10231f" stroke-width="4"/>
  <ellipse cx="64" cy="72" rx="33" ry="24" fill="#43a79a" stroke="#10231f" stroke-width="5"/>
  <circle cx="52" cy="55" r="7" fill="#10231f"/>
  <circle cx="76" cy="55" r="7" fill="#10231f"/>
  <path d="M42 72c-13-2-21-9-23-20" fill="none" stroke="#10231f" stroke-width="6" stroke-linecap="round"/>
  <path d="M86 72c13-2 21-9 23-20" fill="none" stroke="#10231f" stroke-width="6" stroke-linecap="round"/>
  <path d="M28 45c-9-5-13-14-8-20 9 1 15 7 16 17z" fill="#ffb45c" stroke="#10231f" stroke-width="5"/>
  <path d="M100 45c9-5 13-14 8-20-9 1-15 7-16 17z" fill="#ffb45c" stroke="#10231f" stroke-width="5"/>
  <path d="M42 92l-16 12M55 96l-9 16M73 96l9 16M86 92l16 12" stroke="#10231f" stroke-width="6" stroke-linecap="round"/>
</svg>
